<svg xmlns="http://www.w3.org/2000/svg" viewBox="0 0 1000 880" width="1000" height="880" font-family="Arial, Helvetica, sans-serif">
<rect width="100%" height="100%" fill="#ffffff"/>
<text x="500" y="26" font-size="17" font-weight="bold" text-anchor="middle" fill="#212121">Figura 4. CC2 — Defectos de la palanquilla 160 × 160 mm y límites de aceptación</text>
<text x="500" y="46" font-size="12" text-anchor="middle" fill="#212121">Límites de referencia para disposición en planta: TODOS [Validar con Ingeniería de Calidad (C-09) y con Laminación de largos].</text>
<text x="500" y="62" font-size="12" text-anchor="middle" fill="#212121">Macro = ataque ácido del corte transversal (ASTM E381) o impresión de azufre (Baumann). Escala interna de grados 0–4.</text>
<rect x="5" y="74" width="245" height="385" fill="#FAFAFA" stroke="#B0BEC5"/>
<circle cx="21" cy="92" r="11" fill="#455A64"/><text x="21" y="96" font-size="12" font-weight="bold" text-anchor="middle" fill="#ffffff">1</text>
<text x="37" y="97" font-size="13.5" font-weight="bold" fill="#212121">Romboidad</text>
<polygon points="49.5,116 195.5,106 205.5,252 59.5,262" fill="#B0BEC5" stroke="#455A64" stroke-width="2"/>
<line x1="49.5" y1="116" x2="205.5" y2="252" stroke="#C62828" stroke-width="2"/>
<line x1="195.5" y1="106" x2="59.5" y2="262" stroke="#2E7D32" stroke-width="2"/>
<text x="87.5" y="164" font-size="13" font-weight="bold" fill="#C62828">D1</text>
<text x="149.5" y="164" font-size="13" font-weight="bold" fill="#2E7D32">D2</text>
<text x="15" y="284" font-size="12" fill="#212121" >ΔD = D1 − D2 (medir en caliente con</text>
<text x="15" y="300" font-size="12" fill="#212121" >calibrador de diagonales)</text>
<text x="15" y="320" font-size="12" fill="#2E7D32" font-weight="bold">Aceptar: ΔD ≤ 6 mm</text>
<text x="15" y="340" font-size="12" fill="#EF6C00" font-weight="bold">Retener: ΔD > 6 y ≤ 11 mm (≤ 5 %)</text>
<text x="15" y="360" font-size="12" fill="#C62828" font-weight="bold">Rechazar: ΔD > 11 mm (> 5 %)</text>
<text x="15" y="380" font-size="12" fill="#212121" font-weight="bold">Causa: tubo desgastado, agua</text>
<text x="15" y="396" font-size="12" fill="#212121" >desigual, chorro descentrado, pie</text>
<text x="15" y="412" font-size="12" fill="#212121" >de rodillos desalineado</text>
<rect x="252" y="74" width="245" height="385" fill="#FAFAFA" stroke="#B0BEC5"/>
<circle cx="268" cy="92" r="11" fill="#455A64"/><text x="268" y="96" font-size="12" font-weight="bold" text-anchor="middle" fill="#ffffff">2</text>
<text x="284" y="97" font-size="13.5" font-weight="bold" fill="#212121">Grietas de esquina</text>
<rect x="299.5" y="109.0" width="150" height="150" rx="6" fill="#B0BEC5" stroke="#455A64" stroke-width="2"/>
<path d="M 301.5 119 l 8 4 l 3 8 M 309.5 111 l 4 9" stroke="#C62828" stroke-width="2.5" fill="none"/>
<path d="M 447.5 249 l -8 -4 l -3 -8 M 439.5 257 l -4 -9" stroke="#C62828" stroke-width="2.5" fill="none"/>
<text x="374.5" y="189" font-size="11" text-anchor="middle" fill="#212121">superficie / subsuperficie</text>
<text x="262" y="284" font-size="12" fill="#2E7D32" font-weight="bold">Aceptar: sin grietas visibles</text>
<text x="262" y="304" font-size="12" fill="#EF6C00" font-weight="bold">Retener: grieta ≤ 2 mm de</text>
<text x="262" y="320" font-size="12" fill="#EF6C00" >profundidad (esmerilar y</text>
<text x="262" y="336" font-size="12" fill="#EF6C00" >reinspeccionar)</text>
<text x="262" y="356" font-size="12" fill="#C62828" font-weight="bold">Rechazar: grieta > 2 mm o > 50 mm</text>
<text x="262" y="372" font-size="12" fill="#C62828" >de largo</text>
<text x="262" y="392" font-size="12" fill="#212121" font-weight="bold">Causa: romboidad, esquina de tubo</text>
<text x="262" y="408" font-size="12" fill="#212121" >gastada, enfriamiento fuerte en</text>
<text x="262" y="424" font-size="12" fill="#212121" >esquinas, enderezado &lt; 900 °C</text>
<rect x="499" y="74" width="245" height="385" fill="#FAFAFA" stroke="#B0BEC5"/>
<circle cx="515" cy="92" r="11" fill="#455A64"/><text x="515" y="96" font-size="12" font-weight="bold" text-anchor="middle" fill="#ffffff">3</text>
<text x="531" y="97" font-size="13.5" font-weight="bold" fill="#212121">Grietas en la diagonal</text>
<rect x="546.5" y="109.0" width="150" height="150" rx="6" fill="#B0BEC5" stroke="#455A64" stroke-width="2"/>
<path d="M 571.5 134 l 12 14 l 6 -2 l 14 16 l 5 -3 l 13 18" stroke="#C62828" stroke-width="2.5" fill="none"/>
<path d="M 671.5 234 l -12 -14 l -6 2 l -14 -16" stroke="#C62828" stroke-width="2.5" fill="none"/>
<line x1="546.5" y1="109" x2="696.5" y2="259" stroke="#455A64" stroke-dasharray="3 3"/>
<text x="621.5" y="254" font-size="11" text-anchor="middle" fill="#212121">macro (corte transversal)</text>
<text x="509" y="284" font-size="12" fill="#2E7D32" font-weight="bold">Aceptar: grado macro ≤ 1 (escala</text>
<text x="509" y="300" font-size="12" fill="#2E7D32" >interna 0–4)</text>
<text x="509" y="320" font-size="12" fill="#EF6C00" font-weight="bold">Retener: grado 2</text>
<text x="509" y="340" font-size="12" fill="#C62828" font-weight="bold">Rechazar: grado ≥ 3</text>
<text x="509" y="360" font-size="12" fill="#212121" font-weight="bold">Causa: romboidad, enfriamiento</text>
<text x="509" y="376" font-size="12" fill="#212121" >secundario desigual, rodillos</text>
<text x="509" y="392" font-size="12" fill="#212121" >desalineados o sobrepresión</text>
<rect x="746" y="74" width="245" height="385" fill="#FAFAFA" stroke="#B0BEC5"/>
<circle cx="762" cy="92" r="11" fill="#455A64"/><text x="762" y="96" font-size="12" font-weight="bold" text-anchor="middle" fill="#ffffff">4</text>
<text x="778" y="97" font-size="13.5" font-weight="bold" fill="#212121">Pinholes y sopladuras</text>
<rect x="793.5" y="109.0" width="150" height="150" rx="6" fill="#B0BEC5" stroke="#455A64" stroke-width="2"/>
<ellipse cx="922.2" cy="251.1" rx="2.1" ry="4.5" fill="#212121"/>
<ellipse cx="852.4" cy="113.6" rx="3.0" ry="2.1" fill="#212121"/>
<ellipse cx="799.9" cy="174.2" rx="3.1" ry="2.2" fill="#212121"/>
<ellipse cx="922.2" cy="119.3" rx="3.2" ry="2.2" fill="#212121"/>
<ellipse cx="799.7" cy="130.0" rx="3.1" ry="2.4" fill="#212121"/>
<ellipse cx="798.7" cy="141.3" rx="2.6" ry="4.4" fill="#212121"/>
<ellipse cx="933.8" cy="136.4" rx="2.4" ry="2.3" fill="#212121"/>
<ellipse cx="876.2" cy="119.2" rx="3.0" ry="3.6" fill="#212121"/>
<ellipse cx="864.4" cy="245.8" rx="2.7" ry="2.7" fill="#212121"/>
<ellipse cx="937.1" cy="207.9" rx="3.1" ry="3.6" fill="#212121"/>
<ellipse cx="896.0" cy="252.1" rx="4.0" ry="2.4" fill="#212121"/>
<ellipse cx="800.9" cy="143.8" rx="3.9" ry="3.3" fill="#212121"/>
<ellipse cx="900.2" cy="118.7" rx="3.8" ry="2.9" fill="#212121"/>
<ellipse cx="879.8" cy="249.2" rx="2.9" ry="4.5" fill="#212121"/>
<ellipse cx="865.4" cy="248.4" rx="2.1" ry="4.1" fill="#212121"/>
<ellipse cx="801.4" cy="158.2" rx="3.3" ry="2.1" fill="#212121"/>
<text x="868.5" y="189" font-size="11" text-anchor="middle" fill="#212121">poros a 2–15 mm de la piel</text>
<text x="756" y="284" font-size="12" fill="#2E7D32" font-weight="bold">Aceptar: sin poros en la</text>
<text x="756" y="300" font-size="12" fill="#2E7D32" >superficie; macro: ninguno a ≤ 10</text>
<text x="756" y="316" font-size="12" fill="#2E7D32" >mm de la piel</text>
<text x="756" y="336" font-size="12" fill="#EF6C00" font-weight="bold">Retener: ≤ 3 poros por cara,</text>
<text x="756" y="352" font-size="12" fill="#EF6C00" >profundidad ≤ 1 mm</text>
<text x="756" y="372" font-size="12" fill="#C62828" font-weight="bold">Rechazar: sopladuras abiertas o > 3</text>
<text x="756" y="388" font-size="12" fill="#C62828" >por cara</text>
<text x="756" y="408" font-size="12" fill="#212121" font-weight="bold">Causa: O activo alto (desoxidación</text>
<text x="756" y="424" font-size="12" fill="#212121" >baja), aceite húmedo o en exceso,</text>
<text x="756" y="440" font-size="12" fill="#212121" >H₂ / N₂ alto</text>
<rect x="5" y="467" width="245" height="385" fill="#FAFAFA" stroke="#B0BEC5"/>
<circle cx="21" cy="485" r="11" fill="#455A64"/><text x="21" y="489" font-size="12" font-weight="bold" text-anchor="middle" fill="#ffffff">5</text>
<text x="37" y="490" font-size="13.5" font-weight="bold" fill="#212121">Marcas de oscilación profundas</text>
<rect x="27.5" y="517" width="200" height="120" fill="#B0BEC5" stroke="#455A64" stroke-width="2"/>
<path d="M 37.5 517 q 6 60 0 120" stroke="#455A64" stroke-width="3" fill="none"/>
<path d="M 59.5 517 q 6 60 0 120" stroke="#455A64" stroke-width="1" fill="none"/>
<path d="M 81.5 517 q 6 60 0 120" stroke="#455A64" stroke-width="1" fill="none"/>
<path d="M 103.5 517 q 6 60 0 120" stroke="#455A64" stroke-width="1" fill="none"/>
<path d="M 125.5 517 q 6 60 0 120" stroke="#455A64" stroke-width="3" fill="none"/>
<path d="M 147.5 517 q 6 60 0 120" stroke="#455A64" stroke-width="1" fill="none"/>
<path d="M 169.5 517 q 6 60 0 120" stroke="#455A64" stroke-width="1" fill="none"/>
<path d="M 191.5 517 q 6 60 0 120" stroke="#455A64" stroke-width="1" fill="none"/>
<path d="M 213.5 517 q 6 60 0 120" stroke="#455A64" stroke-width="3" fill="none"/>
<text x="127.5" y="655" font-size="11" text-anchor="middle" fill="#212121">cara de la palanquilla (vista lateral) · paso = v / f</text>
<text x="15" y="677" font-size="12" fill="#2E7D32" font-weight="bold">Aceptar: profundidad ≤ 0.6 mm</text>
<text x="15" y="697" font-size="12" fill="#EF6C00" font-weight="bold">Retener: > 0.6 y ≤ 1.0 mm</text>
<text x="15" y="717" font-size="12" fill="#C62828" font-weight="bold">Rechazar: > 1.0 mm o con grieta</text>
<text x="15" y="733" font-size="12" fill="#C62828" >transversal en el fondo</text>
<text x="15" y="753" font-size="12" fill="#212121" font-weight="bold">Causa: carrera o frecuencia fuera</text>
<text x="15" y="769" font-size="12" fill="#212121" >de tabla, nivel inestable, poco</text>
<text x="15" y="785" font-size="12" fill="#212121" >aceite</text>
<rect x="252" y="467" width="245" height="385" fill="#FAFAFA" stroke="#B0BEC5"/>
<circle cx="268" cy="485" r="11" fill="#455A64"/><text x="268" y="489" font-size="12" font-weight="bold" text-anchor="middle" fill="#ffffff">6</text>
<text x="284" y="490" font-size="13.5" font-weight="bold" fill="#212121">Rechupe y porosidad central</text>
<rect x="299.5" y="502.0" width="150" height="150" rx="6" fill="#B0BEC5" stroke="#455A64" stroke-width="2"/>
<polygon points="370.5,561 379.5,569 376.5,591 369.5,583" fill="#212121"/>
<circle cx="372.8" cy="562.4" r="1.2" fill="#212121"/>
<circle cx="355.1" cy="588.8" r="1.2" fill="#212121"/>
<circle cx="363.4" cy="572.2" r="2.3" fill="#212121"/>
<circle cx="356.0" cy="574.8" r="1.8" fill="#212121"/>
<circle cx="391.4" cy="591.0" r="2.3" fill="#212121"/>
<circle cx="364.8" cy="573.3" r="1.5" fill="#212121"/>
<circle cx="391.4" cy="597.1" r="1.2" fill="#212121"/>
<circle cx="360.3" cy="565.2" r="1.4" fill="#212121"/>
<circle cx="373.8" cy="580.9" r="1.4" fill="#212121"/>
<circle cx="352.7" cy="573.4" r="1.6" fill="#212121"/>
<circle cx="377.4" cy="596.9" r="2.0" fill="#212121"/>
<circle cx="375.2" cy="582.2" r="2.0" fill="#212121"/>
<circle cx="354.9" cy="594.6" r="2.2" fill="#212121"/>
<circle cx="391.0" cy="590.1" r="1.6" fill="#212121"/>
<circle cx="370.1" cy="559.6" r="2.0" fill="#212121"/>
<circle cx="355.2" cy="558.0" r="1.3" fill="#212121"/>
<circle cx="359.6" cy="570.0" r="1.1" fill="#212121"/>
<circle cx="352.5" cy="561.7" r="1.2" fill="#212121"/>
<circle cx="374.5" cy="577" r="30" fill="none" stroke="#C62828" stroke-dasharray="4 3"/>
<text x="374.5" y="632" font-size="11" text-anchor="middle" fill="#212121">rechupe + porosidad central (macro)</text>
<text x="262" y="677" font-size="12" fill="#2E7D32" font-weight="bold">Aceptar: grado macro ≤ 1.5</text>
<text x="262" y="697" font-size="12" fill="#EF6C00" font-weight="bold">Retener: grado 2 o rechupe ≤ 3 mm</text>
<text x="262" y="717" font-size="12" fill="#C62828" font-weight="bold">Rechazar: grado ≥ 2.5 o rechupe > 3</text>
<text x="262" y="733" font-size="12" fill="#C62828" >mm</text>
<text x="262" y="753" font-size="12" fill="#212121" font-weight="bold">Causa: sobrecalentamiento > 35 °C,</text>
<text x="262" y="769" font-size="12" fill="#212121" >EMS apagado, velocidad alta, poco</text>
<text x="262" y="785" font-size="12" fill="#212121" >enfriamiento</text>
<rect x="499" y="467" width="245" height="385" fill="#FAFAFA" stroke="#B0BEC5"/>
<circle cx="515" cy="485" r="11" fill="#455A64"/><text x="515" y="489" font-size="12" font-weight="bold" text-anchor="middle" fill="#ffffff">7</text>
<text x="531" y="490" font-size="13.5" font-weight="bold" fill="#212121">Inclusiones de escoria</text>
<rect x="521.5" y="517" width="200" height="120" fill="#B0BEC5" stroke="#455A64" stroke-width="2"/>
<ellipse cx="571.5" cy="557" rx="9" ry="5" fill="#6D4C41" stroke="#212121"/>
<ellipse cx="651.5" cy="592" rx="6" ry="4" fill="#6D4C41" stroke="#212121"/>
<ellipse cx="681.5" cy="547" rx="4" ry="3" fill="#6D4C41" stroke="#212121"/>
<text x="621.5" y="655" font-size="11" text-anchor="middle" fill="#212121">cara de la palanquilla (vista lateral)</text>
<text x="509" y="677" font-size="12" fill="#2E7D32" font-weight="bold">Aceptar: ninguna visible</text>
<text x="509" y="697" font-size="12" fill="#EF6C00" font-weight="bold">Retener: 1–2 inclusiones ≤ 3 mm</text>
<text x="509" y="713" font-size="12" fill="#EF6C00" >(esmerilar)</text>
<text x="509" y="733" font-size="12" fill="#C62828" font-weight="bold">Rechazar: > 3 mm o > 2 por</text>
<text x="509" y="749" font-size="12" fill="#C62828" >palanquilla</text>
<text x="509" y="769" font-size="12" fill="#212121" font-weight="bold">Causa: cambio de olla con nivel</text>
<text x="509" y="785" font-size="12" fill="#212121" >bajo, arrastre de escoria de olla,</text>
<text x="509" y="801" font-size="12" fill="#212121" >chorro abierto (reoxidación)</text>
<rect x="746" y="467" width="245" height="385" fill="#FAFAFA" stroke="#B0BEC5"/>
<circle cx="762" cy="485" r="11" fill="#455A64"/><text x="762" y="489" font-size="12" font-weight="bold" text-anchor="middle" fill="#ffffff">8</text>
<text x="778" y="490" font-size="13.5" font-weight="bold" fill="#212121">Dimensión, rectitud y largo</text>
<path d="M 763.5 587 Q 868.5 547 973.5 587" stroke="#455A64" stroke-width="16" fill="none"/>
<line x1="763.5" y1="587" x2="973.5" y2="587" stroke="#C62828" stroke-dasharray="4 3"/>
<line x1="868.5" y1="567" x2="868.5" y2="587" stroke="#C62828" stroke-width="2"/>
<text x="874.5" y="607" font-size="11" fill="#C62828">flecha</text>
<text x="868.5" y="527" font-size="11" text-anchor="middle" fill="#212121">palanquilla de 12,000 mm (≈ 2.41 t)</text>
<rect x="850.5" y="607.0" width="36" height="36" rx="6" fill="#B0BEC5" stroke="#455A64" stroke-width="2"/>
<text x="894.5" y="629" font-size="11" fill="#212121">160 ± 3</text>
<text x="756" y="677" font-size="12" fill="#2E7D32" font-weight="bold">Aceptar: lado 160 ± 3 mm; flecha ≤</text>
<text x="756" y="693" font-size="12" fill="#2E7D32" >5 mm/m y ≤ 40 mm total; largo</text>
<text x="756" y="709" font-size="12" fill="#2E7D32" >12,000 ± 50 mm</text>
<text x="756" y="729" font-size="12" fill="#EF6C00" font-weight="bold">Retener: fuera de un límite; decide</text>
<text x="756" y="745" font-size="12" fill="#EF6C00" >C-09 con Laminación</text>
<text x="756" y="765" font-size="12" fill="#C62828" font-weight="bold">Rechazar: doblada, torcida o no</text>
<text x="756" y="781" font-size="12" fill="#C62828" >entra al horno de recalentamiento</text>
<text x="756" y="801" font-size="12" fill="#212121" font-weight="bold">Causa: enderezado frío,</text>
<text x="756" y="817" font-size="12" fill="#212121" >enfriamiento desigual en el lecho,</text>
<text x="756" y="833" font-size="12" fill="#212121" >corte fuera de escuadra</text>
<text x="500" y="870" font-size="11.5" text-anchor="middle" fill="#212121">Verde = aceptar · Naranja = retener (decide C-09) · Rojo = rechazar. Nunca liberes una palanquilla con defecto de rechazo sin disposición escrita de C-09.</text>
</svg>