<svg xmlns="http://www.w3.org/2000/svg" viewBox="0 0 1000 760" width="1000" height="760" font-family="Arial, Helvetica, sans-serif">
<defs><marker id="flecha" viewBox="0 0 10 10" refX="8" refY="5" markerWidth="7" markerHeight="7" orient="auto-start-reverse"><path d="M0,0 L10,5 L0,10 z" fill="#2E7D32"/></marker></defs>
<rect width="100%" height="100%" fill="#ffffff"/>
<text x="500.0" y="26" font-size="16" text-anchor="middle" fill="#212121" font-weight="bold">Figura 1. IT-ACE-S13 — Mi área de trabajo: plataforma de colada (olla y distribuidor)</text>
<text x="500.0" y="46" font-size="12" text-anchor="middle" fill="#212121">Vista en planta esquemática, sin escala. Zonas según MS-ACE-01 [Supuesto — Validar con C-16]. Rotación por calor cada 1–2 h.</text>
<rect x="30" y="62" width="450" height="468" rx="6" fill="#FAFAFA" stroke="#455A64" stroke-width="1.5"/><text x="255" y="82" font-size="14" text-anchor="middle" fill="#455A64" font-weight="bold">A. CC1 — planchón (1 línea)</text>
<rect x="45" y="92" width="420" height="330" rx="6" fill="#FBC02D" stroke="#FBC02D" stroke-width="1.5" fill-opacity="0.22" stroke-dasharray="6 4"/><text x="51" y="107" font-size="12" text-anchor="start" fill="#8D6E00" font-weight="bold">Plataforma de colada = amarilla</text>
<rect x="70" y="300" width="380" height="100" rx="6" fill="#C62828" stroke="#C62828" stroke-width="1.5" fill-opacity="0.16" stroke-dasharray="6 4"/><text x="76" y="394" font-size="11" text-anchor="start" fill="#C62828" font-weight="bold">Roja: ≤ 3 m del molde (estable) · ≤ 10 m (arranque)</text>
<circle cx="255" cy="180" r="62" fill="none" stroke="#455A64" stroke-width="4"/>
<circle cx="193" cy="180" r="30" fill="#455A64" stroke="none" stroke-width="1"/><circle cx="193" cy="180" r="21" fill="#FF8F00" stroke="none" stroke-width="1"/>
<circle cx="317" cy="180" r="30" fill="#455A64" stroke="none" stroke-width="1"/><circle cx="317" cy="180" r="21" fill="#E65100" stroke="none" stroke-width="1"/>
<circle cx="255" cy="128" r="11" fill="#212121" stroke="none" stroke-width="1"/><text x="255" y="132" font-size="12" text-anchor="middle" fill="#ffffff" font-weight="bold">1</text>
<circle cx="355" cy="150" r="11" fill="#212121" stroke="none" stroke-width="1"/><text x="355" y="154" font-size="12" text-anchor="middle" fill="#ffffff" font-weight="bold">2</text>
<circle cx="155" cy="150" r="11" fill="#212121" stroke="none" stroke-width="1"/><text x="155" y="154" font-size="12" text-anchor="middle" fill="#ffffff" font-weight="bold">3</text>
<text x="250" y="234" font-size="12" text-anchor="middle" fill="#C62828" font-weight="bold">Nadie bajo la olla</text>
<line x1="317" y1="210" x2="317" y2="262" stroke="#455A64" stroke-width="7"/>
<circle cx="317" cy="236" r="5" fill="#43A047" stroke="none" stroke-width="1"/>
<circle cx="341" cy="238" r="11" fill="#212121" stroke="none" stroke-width="1"/><text x="341" y="242" font-size="12" text-anchor="middle" fill="#ffffff" font-weight="bold">4</text>
<rect x="150" y="262" width="240" height="34" rx="4" fill="#8D6E63" stroke="none" stroke-width="1"/><rect x="158" y="268" width="224" height="16" rx="2" fill="#E65100" stroke="none" stroke-width="1"/>
<line x1="330" y1="262" x2="330" y2="318" stroke="#455A64" stroke-width="5"/>
<rect x="280" y="318" width="100" height="30" rx="0" fill="#B0BEC5" stroke="#455A64" stroke-width="2"/><rect x="288" y="322" width="84" height="8" rx="0" fill="#E65100" stroke="none" stroke-width="1"/>
<circle cx="134" cy="279" r="11" fill="#212121" stroke="none" stroke-width="1"/><text x="134" y="283" font-size="12" text-anchor="middle" fill="#ffffff" font-weight="bold">5</text>
<circle cx="352" cy="305" r="11" fill="#212121" stroke="none" stroke-width="1"/><text x="352" y="309" font-size="12" text-anchor="middle" fill="#ffffff" font-weight="bold">6</text>
<circle cx="396" cy="333" r="11" fill="#212121" stroke="none" stroke-width="1"/><text x="396" y="337" font-size="12" text-anchor="middle" fill="#ffffff" font-weight="bold">7</text>
<text x="330" y="364" font-size="11" text-anchor="middle" fill="#212121">SEN 120–160 mm · Ar 3–8 NL/min</text>
<rect x="70" y="240" width="34" height="44" rx="3" fill="#455A64" stroke="none" stroke-width="1"/><circle cx="87" cy="230" r="11" fill="#212121" stroke="none" stroke-width="1"/><text x="87" y="234" font-size="12" text-anchor="middle" fill="#ffffff" font-weight="bold">9</text>
<rect x="415" y="100" width="36" height="26" rx="3" fill="#8D6E63" stroke="none" stroke-width="1"/><circle cx="400" cy="113" r="11" fill="#212121" stroke="none" stroke-width="1"/><text x="400" y="117" font-size="12" text-anchor="middle" fill="#ffffff" font-weight="bold">8</text>
<rect x="410" y="190" width="40" height="34" rx="0" fill="#90A4AE" stroke="#455A64" stroke-width="2"/><circle cx="430" cy="180" r="11" fill="#212121" stroke="none" stroke-width="1"/><text x="430" y="184" font-size="12" text-anchor="middle" fill="#ffffff" font-weight="bold">10</text>
<rect x="74" y="458" width="32" height="24" rx="4" fill="#2E7D32" stroke="none" stroke-width="1"/><text x="90" y="475" font-size="12" text-anchor="middle" fill="#ffffff" font-weight="bold">R</text>
<polyline points="255,410 255,470 112,470" fill="none" stroke="#2E7D32" stroke-width="3" stroke-dasharray="10 5" marker-end="url(#flecha)"/>
<text x="270" y="460" font-size="11" text-anchor="start" fill="#212121">Escalera a púlpito y PR3</text>
<rect x="520" y="62" width="450" height="468" rx="6" fill="#FAFAFA" stroke="#455A64" stroke-width="1.5"/><text x="745" y="82" font-size="14" text-anchor="middle" fill="#455A64" font-weight="bold">B. CC2 — palanquilla (6 líneas)</text>
<rect x="535" y="92" width="420" height="330" rx="6" fill="#FBC02D" stroke="#FBC02D" stroke-width="1.5" fill-opacity="0.22" stroke-dasharray="6 4"/><text x="541" y="107" font-size="12" text-anchor="start" fill="#8D6E00" font-weight="bold">Plataforma de colada = amarilla</text>
<rect x="560" y="300" width="380" height="100" rx="6" fill="#C62828" stroke="#C62828" stroke-width="1.5" fill-opacity="0.16" stroke-dasharray="6 4"/><text x="566" y="394" font-size="11" text-anchor="start" fill="#C62828" font-weight="bold">Roja: ≤ 3 m del molde (estable) · ≤ 10 m (arranque)</text>
<circle cx="745" cy="180" r="62" fill="none" stroke="#455A64" stroke-width="4"/>
<circle cx="683" cy="180" r="30" fill="#455A64" stroke="none" stroke-width="1"/><circle cx="683" cy="180" r="21" fill="#FF8F00" stroke="none" stroke-width="1"/>
<circle cx="807" cy="180" r="30" fill="#455A64" stroke="none" stroke-width="1"/><circle cx="807" cy="180" r="21" fill="#E65100" stroke="none" stroke-width="1"/>
<circle cx="745" cy="128" r="11" fill="#212121" stroke="none" stroke-width="1"/><text x="745" y="132" font-size="12" text-anchor="middle" fill="#ffffff" font-weight="bold">1</text>
<circle cx="845" cy="150" r="11" fill="#212121" stroke="none" stroke-width="1"/><text x="845" y="154" font-size="12" text-anchor="middle" fill="#ffffff" font-weight="bold">2</text>
<circle cx="645" cy="150" r="11" fill="#212121" stroke="none" stroke-width="1"/><text x="645" y="154" font-size="12" text-anchor="middle" fill="#ffffff" font-weight="bold">3</text>
<text x="740" y="234" font-size="12" text-anchor="middle" fill="#C62828" font-weight="bold">Nadie bajo la olla</text>
<line x1="807" y1="210" x2="807" y2="262" stroke="#455A64" stroke-width="7"/>
<circle cx="807" cy="236" r="5" fill="#43A047" stroke="none" stroke-width="1"/>
<circle cx="831" cy="238" r="11" fill="#212121" stroke="none" stroke-width="1"/><text x="831" y="242" font-size="12" text-anchor="middle" fill="#ffffff" font-weight="bold">4</text>
<rect x="575" y="262" width="340" height="34" rx="4" fill="#8D6E63" stroke="none" stroke-width="1"/><rect x="583" y="268" width="324" height="16" rx="2" fill="#E65100" stroke="none" stroke-width="1"/>
<line x1="610" y1="296" x2="610" y2="322" stroke="#FF8F00" stroke-width="3"/>
<rect x="600" y="322" width="20" height="20" rx="0" fill="#B0BEC5" stroke="#455A64" stroke-width="2"/>
<text x="610" y="356" font-size="11" text-anchor="middle" fill="#212121" font-weight="bold">L1</text>
<line x1="668" y1="296" x2="668" y2="322" stroke="#FF8F00" stroke-width="3"/>
<rect x="658" y="322" width="20" height="20" rx="0" fill="#B0BEC5" stroke="#455A64" stroke-width="2"/>
<text x="668" y="356" font-size="11" text-anchor="middle" fill="#212121" font-weight="bold">L2</text>
<line x1="726" y1="296" x2="726" y2="322" stroke="#FF8F00" stroke-width="3"/>
<rect x="716" y="322" width="20" height="20" rx="0" fill="#B0BEC5" stroke="#455A64" stroke-width="2"/>
<text x="726" y="356" font-size="11" text-anchor="middle" fill="#212121" font-weight="bold">L3</text>
<line x1="784" y1="296" x2="784" y2="322" stroke="#FF8F00" stroke-width="3"/>
<rect x="774" y="322" width="20" height="20" rx="0" fill="#B0BEC5" stroke="#455A64" stroke-width="2"/>
<text x="784" y="356" font-size="11" text-anchor="middle" fill="#212121" font-weight="bold">L4</text>
<line x1="842" y1="296" x2="842" y2="322" stroke="#FF8F00" stroke-width="3"/>
<rect x="832" y="322" width="20" height="20" rx="0" fill="#B0BEC5" stroke="#455A64" stroke-width="2"/>
<text x="842" y="356" font-size="11" text-anchor="middle" fill="#212121" font-weight="bold">L5</text>
<line x1="900" y1="296" x2="900" y2="322" stroke="#FF8F00" stroke-width="3"/>
<rect x="890" y="322" width="20" height="20" rx="0" fill="#B0BEC5" stroke="#455A64" stroke-width="2"/>
<text x="900" y="356" font-size="11" text-anchor="middle" fill="#212121" font-weight="bold">L6</text>
<circle cx="560" cy="279" r="11" fill="#212121" stroke="none" stroke-width="1"/><text x="560" y="283" font-size="12" text-anchor="middle" fill="#ffffff" font-weight="bold">5</text>
<circle cx="928" cy="305" r="11" fill="#212121" stroke="none" stroke-width="1"/><text x="928" y="309" font-size="12" text-anchor="middle" fill="#ffffff" font-weight="bold">6</text>
<circle cx="928" cy="334" r="11" fill="#212121" stroke="none" stroke-width="1"/><text x="928" y="338" font-size="12" text-anchor="middle" fill="#ffffff" font-weight="bold">7</text>
<text x="745" y="372" font-size="11" text-anchor="middle" fill="#212121">Buza 22 mm (20–24) en 160 × 160</text>
<rect x="550" y="214" width="44" height="34" rx="3" fill="#C62828" stroke="none" stroke-width="1" fill-opacity="0.85"/><text x="572" y="236" font-size="10" text-anchor="middle" fill="#ffffff" font-weight="bold">900 °C</text>
<circle cx="572" cy="204" r="11" fill="#212121" stroke="none" stroke-width="1"/><text x="572" y="208" font-size="12" text-anchor="middle" fill="#ffffff" font-weight="bold">9</text>
<rect x="905" y="100" width="36" height="26" rx="3" fill="#8D6E63" stroke="none" stroke-width="1"/><circle cx="890" cy="113" r="11" fill="#212121" stroke="none" stroke-width="1"/><text x="890" y="117" font-size="12" text-anchor="middle" fill="#ffffff" font-weight="bold">8</text>
<rect x="900" y="190" width="40" height="34" rx="0" fill="#90A4AE" stroke="#455A64" stroke-width="2"/><circle cx="920" cy="180" r="11" fill="#212121" stroke="none" stroke-width="1"/><text x="920" y="184" font-size="12" text-anchor="middle" fill="#ffffff" font-weight="bold">10</text>
<rect x="564" y="458" width="32" height="24" rx="4" fill="#2E7D32" stroke="none" stroke-width="1"/><text x="580" y="475" font-size="12" text-anchor="middle" fill="#ffffff" font-weight="bold">R</text>
<polyline points="745,410 745,470 602,470" fill="none" stroke="#2E7D32" stroke-width="3" stroke-dasharray="10 5" marker-end="url(#flecha)"/>
<text x="760" y="460" font-size="11" text-anchor="start" fill="#212121">Escalera a púlpito y PR3</text>
<text x="40" y="556" font-size="12" text-anchor="start" fill="#212121" font-weight="bold">Zonas:</text><rect x="95" y="545" width="26" height="14" rx="3" fill="#C62828" stroke="#C62828" stroke-width="1" fill-opacity="0.16" stroke-dasharray="6 4"/><text x="126" y="556" font-size="12" text-anchor="start" fill="#212121">Roja: solo personal nombrado</text><rect x="320" y="545" width="26" height="14" rx="3" fill="#FBC02D" stroke="#FBC02D" stroke-width="1" fill-opacity="0.22" stroke-dasharray="6 4"/><text x="351" y="556" font-size="12" text-anchor="start" fill="#212121">Amarilla: con EPP de zona, sin detenerse</text><rect x="610" y="545" width="26" height="14" rx="3" fill="#43A047" stroke="#43A047" stroke-width="1" fill-opacity="0.16" stroke-dasharray="6 4"/><text x="641" y="556" font-size="12" text-anchor="start" fill="#212121">Verde: segura</text><line x1="740" y1="552" x2="780" y2="552" stroke="#2E7D32" stroke-width="3" stroke-dasharray="10 5" marker-end="url(#flecha)"/><text x="786" y="556" font-size="12" text-anchor="start" fill="#212121">Ruta de escape</text><rect x="884" y="540" width="32" height="24" rx="4" fill="#2E7D32" stroke="none" stroke-width="1"/><text x="900" y="557" font-size="12" text-anchor="middle" fill="#ffffff" font-weight="bold">R</text><text x="920" y="556" font-size="12" text-anchor="start" fill="#212121">Refugio</text>
<text x="40" y="590" font-size="13" text-anchor="start" fill="#212121" font-weight="bold">Leyenda</text><circle cx="50" cy="606" r="11" fill="#212121" stroke="none" stroke-width="1"/><text x="50" y="610" font-size="12" text-anchor="middle" fill="#ffffff" font-weight="bold">1</text><text x="68" y="610" font-size="12" text-anchor="start" fill="#212121">Torreta de ollas (giro ≤ 60 s, alarma sonora)</text><circle cx="50" cy="624" r="11" fill="#212121" stroke="none" stroke-width="1"/><text x="50" y="628" font-size="12" text-anchor="middle" fill="#ffffff" font-weight="bold">2</text><text x="68" y="628" font-size="12" text-anchor="start" fill="#212121">Olla en colada (150 t)</text><circle cx="50" cy="642" r="11" fill="#212121" stroke="none" stroke-width="1"/><text x="50" y="646" font-size="12" text-anchor="middle" fill="#ffffff" font-weight="bold">3</text><text x="68" y="646" font-size="12" text-anchor="start" fill="#212121">Olla en espera (llega ≥ 10 min antes)</text><circle cx="50" cy="660" r="11" fill="#212121" stroke="none" stroke-width="1"/><text x="50" y="664" font-size="12" text-anchor="middle" fill="#ffffff" font-weight="bold">4</text><text x="68" y="664" font-size="12" text-anchor="start" fill="#212121">Tubo protector con sello de argón</text><circle cx="50" cy="678" r="11" fill="#212121" stroke="none" stroke-width="1"/><text x="50" y="682" font-size="12" text-anchor="middle" fill="#ffffff" font-weight="bold">5</text><text x="68" y="682" font-size="12" text-anchor="start" fill="#212121">Distribuidor: CC1 45 t, 900–1,100 mm · CC2 30 t, 700–850 mm</text><circle cx="50" cy="696" r="11" fill="#212121" stroke="none" stroke-width="1"/><text x="50" y="700" font-size="12" text-anchor="middle" fill="#ffffff" font-weight="bold">6</text><text x="68" y="700" font-size="12" text-anchor="start" fill="#212121">CC1: barra tapón + SEN · CC2: buza calibrada con cambio rápido</text><circle cx="520" cy="606" r="11" fill="#212121" stroke="none" stroke-width="1"/><text x="520" y="610" font-size="12" text-anchor="middle" fill="#ffffff" font-weight="bold">7</text><text x="538" y="610" font-size="12" text-anchor="start" fill="#212121">Molde (CC1: 1 · CC2: L1–L6)</text><circle cx="520" cy="624" r="11" fill="#212121" stroke="none" stroke-width="1"/><text x="520" y="628" font-size="12" text-anchor="middle" fill="#ffffff" font-weight="bold">8</text><text x="538" y="628" font-size="12" text-anchor="start" fill="#212121">Lanzas de temperatura y muestra (secas)</text><circle cx="520" cy="642" r="11" fill="#212121" stroke="none" stroke-width="1"/><text x="520" y="646" font-size="12" text-anchor="middle" fill="#ffffff" font-weight="bold">9</text><text x="538" y="646" font-size="12" text-anchor="start" fill="#212121">CC1: cambiador y SEN de repuesto · CC2: horno de buzas ≥ 900 °C</text><circle cx="520" cy="660" r="11" fill="#212121" stroke="none" stroke-width="1"/><text x="520" y="664" font-size="12" text-anchor="middle" fill="#ffffff" font-weight="bold">10</text><text x="538" y="664" font-size="12" text-anchor="start" fill="#212121">Caja / olla de emergencia seca</text><rect x="504" y="666" width="32" height="24" rx="4" fill="#2E7D32" stroke="none" stroke-width="1"/><text x="520" y="683" font-size="12" text-anchor="middle" fill="#ffffff" font-weight="bold">R</text><text x="538" y="682" font-size="12" text-anchor="start" fill="#212121">Refugio: púlpito (≤ 30 s)</text>
</svg>
